<svg width="381" height="290" viewBox="0 0 381 290" fill="none" xmlns="http://www.w3.org/2000/svg">
<path fill-rule="evenodd" clip-rule="evenodd" d="M101.12 100.7C101.484 100.871 101.879 100.967 102.28 100.984C102.682 101.002 103.083 100.939 103.46 100.8C103.534 100.782 103.6 100.739 103.646 100.68C103.693 100.62 103.719 100.546 103.719 100.47C103.719 100.394 103.693 100.32 103.646 100.261C103.6 100.201 103.534 100.159 103.46 100.14C101.906 99.4714 100.584 98.3583 99.6604 96.9401C99.6364 96.867 99.5884 96.8041 99.524 96.7619C99.46 96.7197 99.3829 96.7005 99.3066 96.7074C99.2298 96.7143 99.1578 96.747 99.1022 96.8005C99.0466 96.8536 99.0106 96.9237 99.0004 97.0001C98.9037 97.7634 99.0582 98.5376 99.4407 99.2052C99.8233 99.8728 100.413 100.398 101.12 100.7ZM251.62 51.8801C233.62 54.2201 221.78 55.8801 221.78 55.8801C221.46 55.8801 221.58 56.2001 221.58 56.5201V145.4C221.58 145.56 222.08 145.7 222.26 145.72C237.08 147.4 258.92 149.08 281.3 150.58C296.5 151.58 370 155.54 370 155.54C370.207 155.54 370.407 155.462 370.56 155.32C370.64 155.252 370.705 155.165 370.753 155.068C370.796 154.972 370.818 154.867 370.818 154.76C370.938 147.26 372.378 40.3401 372.378 40.3401C372.378 40.2277 372.356 40.1168 372.313 40.0139C372.265 39.911 372.2 39.8176 372.12 39.7401C372.04 39.6608 371.942 39.599 371.836 39.5579C371.727 39.5168 371.615 39.4968 371.498 39.5001C347.88 40.9801 320.94 43.6201 296.48 46.3801C279.76 48.3201 264.18 50.2401 251.62 51.8801ZM370.72 41.2801L369.24 153.98C365.36 153.82 296.58 150.42 281.36 149.52C259.14 148.2 237.36 146.7 222.58 145.16V57.1601C225.86 56.7001 295.66 48.0601 311.64 46.4001C331.46 44.3201 352.08 42.4401 370.72 41.2801Z" fill="black"/>
<path fill-rule="evenodd" clip-rule="evenodd" d="M254.12 98.7401C254.078 108.849 258.04 118.563 265.14 125.76C268.655 129.335 272.847 132.175 277.47 134.115C282.094 136.053 287.057 137.052 292.07 137.052C297.083 137.052 302.047 136.053 306.672 134.115C311.295 132.175 315.487 129.335 319 125.76C324.354 120.343 327.965 113.452 329.374 105.968C330.782 98.4844 329.92 90.7506 326.9 83.7601C329.618 83.7695 332.283 83.0019 334.578 81.5477C336.875 80.0935 338.708 78.0131 339.862 75.552C341.015 73.091 341.442 70.351 341.09 67.6557C340.738 64.9604 339.625 62.4219 337.878 60.339C336.132 58.2557 333.827 56.7153 331.234 55.899C328.642 55.0822 325.87 55.0233 323.245 55.7299C320.62 56.4361 318.252 57.8779 316.418 59.8851C314.587 61.8928 313.365 64.3819 312.9 67.0601C307.178 63.3277 300.557 61.207 293.732 60.9208C286.905 60.635 280.13 62.1942 274.115 65.4346C268.102 68.675 263.072 73.4768 259.557 79.3342C256.042 85.1917 254.17 91.8888 254.14 98.7201L254.12 98.7401ZM323.16 66.4801L325.54 71.88L330.42 59.5601L333.14 61.2601L327.5 76.5L323.5 76.88L320.14 69.5401L323.16 66.4801ZM292.06 61.6C299.465 61.6204 306.682 63.9331 312.72 68.2201V69.5401C312.72 73.0568 314.022 76.4491 316.375 79.0637C318.727 81.6779 321.963 83.3295 325.46 83.7001C328.44 90.4939 329.314 98.0259 327.965 105.321C326.618 112.617 323.112 119.34 317.9 124.62C314.532 128.032 310.518 130.74 306.095 132.588C301.672 134.437 296.925 135.388 292.13 135.388C287.337 135.388 282.59 134.437 278.165 132.588C273.742 130.74 269.73 128.032 266.36 124.62C259.545 117.713 255.71 108.41 255.677 98.7066C255.643 89.0037 259.414 79.6742 266.18 72.7201C269.534 69.2321 273.55 66.451 277.995 64.5411C282.44 62.631 287.223 61.631 292.06 61.6Z" fill="black"/>
<path fill-rule="evenodd" clip-rule="evenodd" d="M270.66 84.16L277.36 84.34C277.48 85.28 281.36 111 281.36 111C281.388 111.193 281.485 111.369 281.632 111.497C281.779 111.626 281.965 111.697 282.16 111.7L305.4 111.2C305.473 111.182 305.539 111.139 305.587 111.079C305.633 111.02 305.659 110.946 305.659 110.87C305.659 110.794 305.633 110.72 305.587 110.66C305.539 110.6 305.473 110.558 305.4 110.54C305.4 110.54 293.78 110.16 291.4 110.12H282.8C282.68 109.3 282.44 107.8 282.14 105.9C284.14 105.9 303.42 105.42 303.42 105.42C303.612 105.417 303.797 105.344 303.94 105.215C304.083 105.087 304.177 104.911 304.2 104.72L306.2 90.56C306.212 90.4451 306.202 90.3291 306.167 90.219C306.132 90.1088 306.075 90.007 306 89.92C305.923 89.8317 305.827 89.7608 305.72 89.7128C305.613 89.6644 305.497 89.6397 305.38 89.64C305.38 89.64 281.38 90.18 279.56 90.26C278.34 83.48 278.42 83.3 277.78 83.3L270.58 83.56C270.49 83.56 270.403 83.5957 270.34 83.6593C270.275 83.7233 270.24 83.8099 270.24 83.9C270.24 83.9902 270.275 84.0768 270.34 84.1404C270.403 84.204 270.49 84.24 270.58 84.24L270.66 84.16ZM296.52 103.34V104.1C295.88 104.1 290.34 104.5 288.36 104.66C288.365 102.602 288.19 100.548 287.84 98.52L296.74 98.32C296.527 99.9844 296.453 101.663 296.52 103.34ZM298.8 92.34V91.2001H304.54L303.74 97H302.06C301.1 97 299.9 96.9 298.58 96.88C298.75 95.3728 298.823 93.8564 298.8 92.34ZM298.42 98.34C299.82 98.24 301.08 98.1201 302.08 98.0201L303.62 97.86L302.8 103.86L297.42 104.14C297.42 103.96 297.42 103.76 297.56 103.54C297.985 101.799 298.272 100.026 298.42 98.24V98.34ZM297.9 91.3C297.433 93.1124 297.105 94.9575 296.92 96.82L287.62 97.08C287.345 95.0488 286.91 93.0426 286.32 91.08C290.62 91.14 293.6 91.1801 297.9 91.2001V91.3ZM287.56 104.82L282.14 105.22C281.8 103.22 281.42 100.84 281.02 98.42L283.2 98.54H286.2C286.475 100.635 286.93 102.703 287.56 104.72V104.82ZM285.56 91.12C285.575 93.1299 285.742 95.1353 286.06 97.12L283.26 97.36L280.96 97.58C280.8 96.56 280.04 92.1 279.84 90.94C280.84 91 283 91.0001 285.48 91.0001L285.56 91.12Z" fill="black"/>
<path fill-rule="evenodd" clip-rule="evenodd" d="M380.742 31.38C380.658 31.3033 380.56 31.2447 380.455 31.2069C380.345 31.1691 380.233 31.1531 380.12 31.16C353.84 32.86 323.86 35.88 296.64 39.04C278.02 41.2 213.5 49.9 213.5 49.9C213.18 49.9 213.34 50.22 213.34 50.54V152.4C213.34 152.56 213.86 152.7 214.04 152.72C230.3 154.6 254.2 156.5 278.76 158.18C279.28 160.18 281.46 168.18 282.52 174.34C282.894 176.21 283.073 178.113 283.06 180.02C283.077 180.363 282.994 180.703 282.82 181C280.82 183 269.44 186.5 269.1 186.64C268.932 186.69 268.785 186.797 268.687 186.943C268.588 187.09 268.543 187.265 268.56 187.44L268.88 191.32C268.89 191.5 268.963 191.67 269.088 191.798C269.213 191.927 269.382 192.005 269.56 192.02C316.34 198.26 313.56 198.16 313.98 198.02C318.063 196.3 322.02 194.295 325.82 192.02C326.997 191.297 328.078 190.43 329.04 189.44C329.583 188.908 329.919 188.198 329.98 187.44C329.535 184.592 328.867 181.783 327.98 179.04C325.98 172.3 323.2 163.64 322.32 161.04L378.44 164.02C378.545 164.028 378.655 164.013 378.756 163.975C378.855 163.938 378.945 163.878 379.022 163.8C379.098 163.73 379.16 163.643 379.2 163.547C379.244 163.45 379.262 163.345 379.262 163.24C379.4 154.64 381 32.12 381 32.12C381.018 31.9851 381 31.8476 380.956 31.7193C380.913 31.5909 380.84 31.4749 380.742 31.38ZM291.76 193.38L270.38 190.5L270.16 187.88H270.34C272 188.12 284.44 189.72 286.92 190C292.3 190.6 311.62 192.54 312.92 192.66C312.628 193.87 312.628 195.13 312.92 196.34L291.76 193.38ZM326.8 179.26C327.605 181.873 328.194 184.55 328.56 187.26C328.488 187.645 328.283 187.992 327.98 188.24C327.08 189.115 326.08 189.88 325 190.52C321.572 192.561 318.01 194.372 314.34 195.94C314.505 194.747 314.408 193.533 314.06 192.38C315.1 191.94 318.68 190.38 321.88 188.84C323.703 188.013 325.45 187.03 327.1 185.9C327.132 185.87 327.155 185.835 327.172 185.795C327.188 185.755 327.198 185.713 327.198 185.67C327.198 185.627 327.188 185.585 327.172 185.545C327.155 185.505 327.132 185.47 327.1 185.44C327.037 185.377 326.95 185.341 326.86 185.341C326.77 185.341 326.683 185.377 326.62 185.44C325.38 186.217 324.075 186.885 322.72 187.44C319.06 189.02 314.3 190.8 313.32 191.16C312.44 191.16 273.98 187.36 272.08 187.16C284.08 182.98 284.08 181.82 284.26 180.02C284.24 178.001 284.005 175.99 283.56 174.02C282.4 168.02 280.1 160.42 279.4 158.02L322.3 161H321.6C322.3 163.22 325 172.3 326.8 179.3V179.26ZM377.702 162.24C373.56 162.06 296.74 158.24 279.8 157.1C255.06 155.56 230.82 153.84 214.34 152.06V51.12C217.84 50.62 295.7 40.68 313.48 38.76C335.48 36.38 358.582 34.2 379.342 32.88L377.702 162.24Z" fill="black"/>
<path fill-rule="evenodd" clip-rule="evenodd" d="M313.54 181.44C312.46 181.44 297.92 180.72 296.58 180.7C295.24 180.68 288.08 180.7 288.08 180.7C288.035 180.697 287.99 180.703 287.948 180.718C287.907 180.733 287.867 180.755 287.834 180.785C287.8 180.815 287.773 180.852 287.754 180.892C287.734 180.932 287.723 180.975 287.72 181.02C287.72 181.107 287.754 181.19 287.814 181.253C287.872 181.317 287.953 181.355 288.04 181.36C288.9 181.36 299.94 182.74 313.48 182.92H321.98C322.023 182.925 322.067 182.922 322.107 182.91C322.148 182.897 322.187 182.877 322.218 182.848C322.252 182.818 322.277 182.783 322.293 182.745C322.312 182.705 322.32 182.663 322.32 182.62C322.323 182.575 322.317 182.53 322.302 182.488C322.287 182.447 322.265 182.407 322.235 182.373C322.205 182.34 322.168 182.313 322.128 182.293C322.088 182.273 322.045 182.263 322 182.26C322 182.26 315.5 181.6 313.54 181.44ZM349.46 106L351.64 110L353.38 108.74L351.28 105.12L354.54 103.54L345.82 95.84L346.32 107.52L349.46 106ZM339.7 117.92C339.68 117.958 339.668 118.002 339.665 118.045C339.663 118.09 339.67 118.133 339.685 118.175C339.7 118.217 339.723 118.253 339.754 118.285C339.783 118.318 339.82 118.343 339.86 118.36C340.555 118.863 341.277 119.332 342.02 119.76C342.86 120.24 344.78 121.1 345.68 121.46C346.22 121.68 349.32 122.82 349.56 122.3C349.58 122.262 349.592 122.218 349.595 122.175C349.597 122.13 349.59 122.087 349.575 122.045C349.56 122.003 349.537 121.967 349.507 121.935C349.477 121.902 349.44 121.877 349.4 121.86L348.54 121.26C346.33 119.848 343.925 118.77 341.4 118.06C340.62 117.84 340.14 117.76 340.14 117.76C340.06 117.725 339.97 117.722 339.888 117.752C339.807 117.782 339.738 117.842 339.7 117.92ZM331.86 135.32C330.707 133.448 329.078 131.917 327.14 130.88C327.11 130.85 327.074 130.825 327.035 130.81C326.995 130.793 326.953 130.785 326.91 130.785C326.867 130.785 326.825 130.793 326.785 130.81C326.747 130.825 326.71 130.85 326.68 130.88C326.65 130.91 326.627 130.947 326.61 130.985C326.594 131.025 326.585 131.067 326.585 131.11C326.585 131.153 326.594 131.195 326.61 131.235C326.627 131.273 326.65 131.31 326.68 131.34C326.814 131.623 326.968 131.898 327.14 132.16C328.292 133.957 329.882 135.43 331.76 136.44C331.788 136.473 331.823 136.5 331.863 136.52C331.903 136.538 331.947 136.547 331.99 136.547C332.034 136.547 332.077 136.538 332.117 136.52C332.157 136.5 332.192 136.473 332.22 136.44C332.278 136.377 332.31 136.295 332.31 136.21C332.31 136.125 332.278 136.043 332.22 135.98L331.86 135.32ZM247.54 110.02C247.492 109.948 247.417 109.895 247.333 109.873C247.248 109.851 247.158 109.861 247.08 109.9C242.915 111.453 239.03 113.675 235.58 116.48C235.508 116.528 235.455 116.603 235.434 116.687C235.412 116.772 235.42 116.862 235.46 116.94C235.507 117.017 235.58 117.072 235.665 117.093C235.752 117.117 235.843 117.103 235.92 117.06C240.077 115.487 243.958 113.265 247.42 110.48C247.494 110.431 247.545 110.357 247.567 110.273C247.588 110.188 247.58 110.098 247.54 110.02ZM257 126.48C255.08 127.615 253.29 128.957 251.66 130.48C245.48 135.86 247.08 135.98 247.42 135.66C247.42 135.66 247.98 135.34 248.84 134.76C252.032 132.55 254.928 129.942 257.46 127C257.493 126.972 257.52 126.938 257.54 126.9C257.56 126.863 257.572 126.822 257.575 126.778C257.578 126.735 257.575 126.693 257.562 126.652C257.548 126.61 257.528 126.573 257.5 126.54C257.474 126.507 257.438 126.48 257.4 126.46C257.363 126.44 257.322 126.428 257.278 126.425C257.235 126.422 257.194 126.425 257.152 126.438C257.112 126.452 257.074 126.472 257.04 126.5L257 126.48ZM288.22 217.48C286.62 216.388 284.858 215.552 283 215C282.93 214.663 282.795 214.343 282.6 214.06C282.245 213.582 281.797 213.18 281.28 212.88C279.52 211.883 277.573 211.263 275.56 211.06C273.053 210.748 270.508 211.072 268.16 212C264.4 213.56 255.18 219.22 244.9 222.9C239.627 224.945 234.035 226.042 228.38 226.14C220.67 226.18 212.983 227.003 205.44 228.6C195.62 230.6 186.84 233.24 183.7 235.18L177.44 226.06H177.62C179.014 225.522 180.354 224.852 181.62 224.06C182.543 223.565 183.354 222.885 184 222.06C184.045 221.988 184.068 221.905 184.068 221.82C184.068 221.735 184.045 221.652 184 221.58C183.932 221.455 183.817 221.362 183.68 221.32C183.468 221.185 183.239 221.078 183 221C180.534 220.903 178.063 220.943 175.6 221.12C170.27 207.638 163.455 194.792 155.28 182.82C150.448 175.723 145.1 168.992 139.28 162.68C141.6 158.32 144.22 153.14 148.66 143.2C150.289 142.405 151.692 141.213 152.74 139.735C153.788 138.258 154.448 136.54 154.66 134.74C157.06 135.66 158.66 132.22 159.16 129.46C162.24 130.66 167.8 132.78 170.94 133.78C171.452 133.967 171.982 134.1 172.52 134.18C174.66 134.18 182.52 122.68 183.92 120.18C184.328 119.517 184.588 118.773 184.68 118C184.658 117.74 184.577 117.49 184.44 117.268C184.305 117.047 184.12 116.858 183.9 116.72C180.82 114.36 167.22 111.24 162.04 110.46C157.56 109.8 157.7 109.96 154.96 113.44C153.92 114.76 152.78 116.32 151.8 117.68C149.984 117.743 148.18 118.005 146.42 118.46C140.3 120.06 138.42 122.26 137.38 126C136.515 128.918 136.116 131.957 136.2 135C131.24 139.9 127.56 143.78 123.62 148.04C113.344 139.468 102.085 132.152 90.0804 126.24L91.2804 118.24C98.1604 118.24 107.66 116.24 110.1 109.78C111.234 106.593 112.09 103.314 112.66 99.98C113.44 95.6 113.76 91.78 113.86 90.46L117.74 88.64C117.908 88.5615 118.043 88.4258 118.12 88.2575C118.196 88.0887 118.211 87.8982 118.16 87.72C118.16 87.72 113.34 69.72 113.04 68.48C115.54 67.92 117.4 67.4 117.4 67.4C117.4 35.4 87.4004 28.7 87.4004 28.7C87.4004 28.7 96.8804 16.7 98.0004 8.94002C99.1204 1.18002 89.6004 -1.41998 77.1004 1.92002C64.6004 5.26002 72.7604 27.3 72.7604 27.3C67.0604 26.04 56.3004 32.48 56.3004 32.48C48.3004 -9.21998 26.4003 8.28002 24.3003 20.62C22.2003 32.96 50.0004 35.78 50.0004 35.78C31.3804 43.58 24.8403 106.5 24.8403 106.5C29.1204 109.8 37.6404 111.82 46.8404 113.04C29.4837 125.278 16.1812 142.427 8.64027 162.28C5.33481 170.842 3.08488 179.773 1.94023 188.88C-0.185661 207.097 1.17179 225.55 5.94023 243.26C8.96641 255.037 12.9806 266.538 17.9403 277.64C17.9747 277.72 18.0394 277.782 18.1201 277.813C18.1599 277.83 18.2026 277.838 18.2456 277.837C18.2884 277.837 18.3307 277.827 18.3703 277.81C18.4096 277.793 18.4452 277.768 18.4751 277.737C18.5049 277.707 18.5284 277.67 18.5443 277.63C18.5601 277.59 18.5678 277.548 18.5671 277.505C18.5664 277.462 18.5572 277.42 18.5403 277.38C13.7574 266.255 9.89758 254.757 7.00023 243C2.4419 225.382 1.2343 207.063 3.44023 189C4.61398 180.023 6.86347 171.22 10.1403 162.78C17.6807 143.048 31.0193 126.063 48.4004 114.06C80.8604 118.62 125.14 142.06 154.26 183.52C162.519 195.385 169.435 208.128 174.88 221.52C167.572 228.253 159.52 234.13 150.88 239.04C146.547 241.517 142.058 243.707 137.44 245.6C132.843 247.503 128.092 249.015 123.24 250.12C119.64 245 102.26 215 102.12 214.84C102.101 214.802 102.075 214.767 102.042 214.738C102.009 214.71 101.971 214.69 101.93 214.677C101.889 214.663 101.846 214.658 101.803 214.663C101.76 214.667 101.718 214.68 101.68 214.7C101.639 214.718 101.602 214.747 101.572 214.78C101.542 214.815 101.519 214.855 101.506 214.898C101.493 214.942 101.489 214.988 101.495 215.033C101.501 215.078 101.516 215.122 101.54 215.16C101.54 215.16 102.34 216.92 103.7 219.7C108.3 229.08 115.86 242.56 122.64 250.52C120.64 253.74 117.16 260.92 120.96 260.62C123.34 260.44 126.32 257.4 126.96 257.02C136.043 266.668 146.454 274.972 157.88 281.68C166 286.2 174.9 289.5 183.6 289.68H183.72C195.38 287.68 207.72 281.12 219.16 272.98C238.58 259.16 255.54 240.98 262.86 233.6C264.07 232.388 265.36 231.258 266.72 230.22C268.907 230.603 271.12 230.81 273.34 230.84C275.007 230.868 276.672 230.762 278.32 230.52C281.158 230.19 283.89 229.242 286.32 227.74C287.62 226.945 288.765 225.922 289.7 224.72C290.414 223.83 290.795 222.72 290.78 221.58C290.75 220.873 290.543 220.187 290.18 219.58C289.682 218.75 289.015 218.033 288.22 217.48ZM57.0004 114.08C71.3204 115.18 84.5804 114.86 84.5804 114.86C83.8604 110.1 77.4204 87.34 77.4204 87.34C72.4004 87.74 68.0004 84.14 71.1004 77.16C74.2004 70.18 81.4404 75.16 81.4404 75.16C87.4582 73.1156 92.883 69.6273 97.2404 65C97.8408 66.6771 98.7961 68.2051 100.04 69.48C101.32 70.78 107.64 69.66 112.28 68.64C112.6 70.4 113.14 73.02 113.74 75.74C114.18 77.84 116.2 86.46 116.44 87.46L112.68 89C111.76 89.42 112.68 90.12 110.96 99.5C110.416 102.736 109.6 105.921 108.52 109.02C108 110.234 107.244 111.332 106.296 112.252C105.349 113.172 104.228 113.895 103 114.38C99.1004 115.97 94.9495 116.857 90.7404 117C90.6004 116.995 90.4637 117.043 90.359 117.137C90.2546 117.23 90.1902 117.36 90.1804 117.5L88.0804 125.28C78.1848 120.365 67.7561 116.607 57.0004 114.08ZM155 133.4C154 133.4 155.46 128.56 155.52 128.26L158.1 129.26C157.72 130.64 156.56 133.38 155 133.4ZM158.06 111.52C162.92 111.74 180.46 116.14 182.64 118.2C182.22 120.3 175.78 128.78 173.32 131.44C171.72 133.14 175.32 134.02 150.98 125.72C152.22 123.84 154.12 120.48 152 119.72C151.699 119.637 151.381 119.637 151.08 119.72C153.216 116.807 155.577 114.065 158.14 111.52H158.06ZM153.92 127.52C153.58 128.66 153.06 132.02 152.04 131.52C151.02 131.02 151.44 128.08 151.9 126.74L153.92 127.52ZM126.18 150.26L124.18 148.56C125.34 147.52 132.18 141.26 132.8 140.56C135.44 138.02 137.62 135.88 137.62 135.88C137.707 135.795 137.773 135.692 137.814 135.577C137.856 135.463 137.872 135.342 137.86 135.22C137.678 132.277 137.948 129.322 138.66 126.46C139.039 124.637 140.07 123.017 141.56 121.9C144.439 120.128 147.653 118.972 151 118.5L149.9 120.06C145.9 122.22 140.94 129.36 140.78 129.56C140.752 129.593 140.732 129.63 140.719 129.672C140.706 129.713 140.701 129.755 140.705 129.798C140.708 129.842 140.721 129.883 140.74 129.92C140.76 129.958 140.787 129.992 140.82 130.02C140.853 130.048 140.891 130.068 140.932 130.082C140.973 130.095 141.016 130.098 141.059 130.095C141.101 130.092 141.143 130.08 141.181 130.06C141.219 130.04 141.252 130.013 141.28 129.98C142.04 129.26 150.36 120.76 151.46 121.2C152.56 121.64 145.46 130.84 146.12 131.38C146.78 131.92 150.3 126.88 150.68 126.3L151.34 126.56C150.22 128.74 149.34 131.72 151.5 132.94C151.764 133.085 152.059 133.162 152.36 133.162C152.661 133.162 152.957 133.085 153.22 132.94C153.28 133.377 153.438 133.793 153.68 134.16C153.287 136.47 152.081 138.562 150.28 140.06C146.28 143.6 148.76 137.74 141.6 154.54C140.96 156.02 140.38 157.46 139.88 158.7C139.38 159.94 138.84 161.32 138.56 162.06C134.634 157.922 130.501 153.983 126.18 150.26ZM121.6 258.76C121.36 258.873 121.103 258.947 120.84 258.98C121.459 256.363 122.485 253.858 123.88 251.56C128.703 250.427 133.425 248.902 138 247C142.658 245.032 147.175 242.745 151.52 240.16C160.179 235.037 168.202 228.907 175.42 221.9C177.872 221.752 180.328 221.752 182.78 221.9C182.215 222.377 181.605 222.798 180.96 223.16C179.745 223.872 178.467 224.467 177.14 224.94C176.767 225.02 176.415 225.183 176.114 225.42C175.812 225.655 175.568 225.957 175.4 226.3C174.94 227.48 175.88 228.52 174.7 230.3C173.1 232.64 170.88 231.36 168.08 232.02C164.74 232.8 166.08 238.02 164.08 239.74C162.08 241.46 157.96 238.42 156.08 241.22C155.04 242.8 155.56 245.38 154.64 246.82C153.72 248.26 148.94 244.26 146.12 247.14C145.192 248.55 144.357 250.02 143.62 251.54C142.24 253.66 140.22 251.06 137.62 250.92C132.82 250.68 136.64 262.04 130.2 256.92C129.584 256.397 128.913 255.942 128.2 255.56C125.88 254.26 125.18 257.26 121.6 258.76ZM261.6 232.34C254.32 239.62 237.44 257.8 218.16 271.64C206.94 279.64 194.9 286.26 183.44 288.28C174.96 288.28 166.26 285.04 158.32 280.72C147.177 274.308 136.973 266.387 128 257.18C128.509 257.502 128.997 257.855 129.46 258.24C137.12 264.24 136.22 252.46 137.82 252.54C140.74 252.68 143.16 257.24 146.68 249.68C146.887 249.157 147.177 248.67 147.54 248.24C149.68 246.04 154.22 250.84 156.24 247.64C157.6 245.46 156.66 241.88 158.24 241.64C159.82 241.4 161.26 242.2 162.94 241.94C168.26 241.16 165.8 233.94 168.44 233.32C169.434 233.112 170.447 233.023 171.46 233.06C172.243 233.08 173.025 232.952 173.76 232.68C174.585 232.332 175.283 231.738 175.76 230.98C177.1 228.98 176.24 227.5 176.5 226.76C176.54 226.66 176.61 226.577 176.7 226.52L183.24 236.42C183.267 236.463 183.302 236.498 183.342 236.527C183.383 236.555 183.432 236.573 183.48 236.58C183.577 236.618 183.683 236.618 183.78 236.58C186.56 234.7 195.54 231.8 205.6 229.92C213.072 228.338 220.683 227.507 228.32 227.44C234.138 227.403 239.902 226.325 245.34 224.26C255.66 220.64 264.94 215.04 268.72 213.5C270.823 212.677 273.1 212.395 275.34 212.68C276.9 212.858 278.42 213.29 279.84 213.96C280.365 214.182 280.832 214.525 281.2 214.96C281.272 215.072 281.325 215.193 281.36 215.32H280.96C280.323 215.023 279.652 214.808 278.96 214.68C276.237 214.178 273.443 214.178 270.72 214.68C270.615 214.695 270.514 214.732 270.423 214.787C270.332 214.842 270.254 214.913 270.19 214.998C270.127 215.085 270.08 215.182 270.055 215.285C270.03 215.388 270.025 215.495 270.04 215.6C270.057 215.705 270.092 215.807 270.147 215.897C270.202 215.988 270.273 216.067 270.36 216.13C270.445 216.193 270.542 216.24 270.645 216.265C270.748 216.29 270.855 216.295 270.96 216.28C272.888 216.01 274.837 215.923 276.78 216.02H277.82C278.227 216.085 278.627 216.178 279.02 216.3C280.06 216.53 280.983 217.127 281.62 217.98C278.378 217.48 275.067 217.663 271.9 218.52H271.66C271.472 218.593 271.315 218.732 271.22 218.912C271.125 219.09 271.098 219.298 271.145 219.495C271.192 219.693 271.307 219.867 271.472 219.985C271.637 220.103 271.838 220.158 272.04 220.14H272.32C274.365 219.695 276.448 219.442 278.54 219.38H280C280.625 219.435 281.242 219.555 281.84 219.74C282.052 219.815 282.254 219.917 282.44 220.04C282.538 220.1 282.647 220.142 282.76 220.16C282.965 220.268 283.143 220.418 283.285 220.602C283.427 220.783 283.527 220.995 283.58 221.22L283.32 221.34C282.963 221.477 282.595 221.585 282.22 221.66C278.782 222.272 275.427 223.278 272.22 224.66C268.262 226.555 264.683 229.158 261.66 232.34H261.6ZM288.36 223.54C287.515 224.64 286.47 225.568 285.28 226.28C283.054 227.643 280.567 228.528 277.98 228.88C276.4 229.155 274.803 229.328 273.2 229.4C271.328 229.5 269.452 229.5 267.58 229.4C268.66 228.64 269.7 228 270.72 227.4C274.82 225.355 279.19 223.908 283.7 223.1C284.92 222.7 285.36 222.04 285.28 221.26C285.215 220.767 285.037 220.295 284.76 219.882C284.482 219.468 284.113 219.127 283.68 218.88C283.52 217.92 283.058 217.038 282.36 216.36L282.6 216.12C282.71 215.973 282.798 215.812 282.86 215.64C283.9 216.112 284.903 216.658 285.86 217.28C287.032 217.993 288.019 218.973 288.74 220.14C289.039 220.672 289.168 221.282 289.112 221.89C289.053 222.497 288.814 223.073 288.42 223.54H288.36Z" fill="black"/>
<path fill-rule="evenodd" clip-rule="evenodd" d="M153.981 122.48C159.795 124.997 165.818 127.003 171.98 128.48C177.66 129.82 173.56 127.4 161.98 123.78C157.8 122.48 154.641 121.78 154.341 121.78C154.296 121.758 154.248 121.745 154.199 121.743C154.15 121.742 154.1 121.75 154.055 121.77C154.009 121.788 153.968 121.818 153.935 121.855C153.902 121.892 153.877 121.935 153.862 121.982C153.847 122.028 153.843 122.078 153.85 122.128C153.856 122.177 153.873 122.223 153.9 122.265C153.926 122.307 153.962 122.343 154.003 122.37C154.045 122.397 154.092 122.414 154.141 122.42L153.981 122.48ZM162.82 114.66L158.64 113.66L156.861 115.56L161.48 116.78L162.82 114.66ZM285 115C283.96 115 283.12 116.16 283.12 117.6C283.12 119.04 283.96 120.18 285 120.18C286.04 120.18 286.86 119.02 286.86 117.6C286.86 116.18 286.1 115 285 115ZM303.16 115C302.12 115 301.28 116.16 301.28 117.6C301.28 119.04 302.12 120.18 303.16 120.18C304.2 120.18 305.02 119.02 305.02 117.6C305.02 116.18 304.18 115 303.16 115ZM105.761 82.5801C105.938 82.583 106.115 82.5495 106.279 82.4815C106.443 82.4135 106.591 82.3132 106.715 82.1855C106.839 82.0583 106.935 81.9066 106.998 81.7408C107.061 81.5746 107.089 81.3975 107.081 81.2201C107.081 80.3001 107.081 79.4001 107.181 78.4801C107.216 78.1139 107.113 77.7477 106.89 77.455C106.668 77.1619 106.343 76.9637 105.981 76.9001C104.221 76.6601 104.441 79.1201 104.441 81.1001C104.434 81.4674 104.566 81.8241 104.811 82.0986C105.056 82.3728 105.395 82.5448 105.761 82.5801Z" fill="black"/>
</svg>
