<svg width="138" height="58" viewBox="0 0 138 58" fill="none" xmlns="http://www.w3.org/2000/svg">
<path d="M5.2 29C5.2 31.16 5.68 33.0667 6.64 34.72C7.62667 36.3733 8.90667 37.6667 10.48 38.6C12.0533 39.5333 13.76 40 15.6 40C16.9333 40 18.1467 39.8267 19.24 39.48C20.36 39.1333 21.3733 38.6533 22.28 38.04C23.1867 37.4 23.96 36.6667 24.6 35.84V40.32C23.4267 41.36 22.1467 42.1333 20.76 42.64C19.3733 43.1467 17.6533 43.4 15.6 43.4C13.6533 43.4 11.8267 43.0533 10.12 42.36C8.44 41.64 6.96 40.64 5.68 39.36C4.4 38.0533 3.4 36.52 2.68 34.76C1.96 33 1.6 31.08 1.6 29C1.6 26.92 1.96 25 2.68 23.24C3.4 21.48 4.4 19.96 5.68 18.68C6.96 17.3733 8.44 16.3733 10.12 15.68C11.8267 14.96 13.6533 14.6 15.6 14.6C17.6533 14.6 19.3733 14.8533 20.76 15.36C22.1467 15.8667 23.4267 16.64 24.6 17.68V22.16C23.96 21.3333 23.1867 20.6133 22.28 20C21.3733 19.36 20.36 18.8667 19.24 18.52C18.1467 18.1733 16.9333 18 15.6 18C13.76 18 12.0533 18.4667 10.48 19.4C8.90667 20.3333 7.62667 21.6267 6.64 23.28C5.68 24.9067 5.2 26.8133 5.2 29ZM32.6769 34.6L33.8769 31.4H46.2769L47.4769 34.6H32.6769ZM39.9969 21.32L35.2769 32.44L34.9569 33.16L30.7969 43H26.9969L39.9969 13.6L52.9969 43H49.1969L45.1169 33.4L44.7969 32.6L39.9969 21.32ZM57.4431 34.52C58.0831 35.64 58.7498 36.6267 59.4431 37.48C60.1631 38.3333 60.9631 39 61.8431 39.48C62.7231 39.96 63.7231 40.2 64.8431 40.2C66.3365 40.2 67.5365 39.7867 68.4431 38.96C69.3498 38.1333 69.8031 37.08 69.8031 35.8C69.8031 34.5467 69.5098 33.5467 68.9231 32.8C68.3365 32.0533 67.5631 31.4533 66.6031 31C65.6698 30.52 64.6698 30.0933 63.6031 29.72C62.9098 29.48 62.1365 29.1733 61.2831 28.8C60.4298 28.4 59.6165 27.9067 58.8431 27.32C58.0698 26.7067 57.4298 25.96 56.9231 25.08C56.4431 24.2 56.2031 23.12 56.2031 21.84C56.2031 20.4533 56.5498 19.2133 57.2431 18.12C57.9365 17.0267 58.8965 16.1733 60.1231 15.56C61.3498 14.92 62.7498 14.6 64.3231 14.6C65.8431 14.6 67.1631 14.8933 68.2831 15.48C69.4298 16.04 70.4031 16.7733 71.2031 17.68C72.0031 18.56 72.6298 19.4933 73.0831 20.48L70.1631 22.16C69.8165 21.4667 69.3765 20.7867 68.8431 20.12C68.3098 19.4533 67.6565 18.9067 66.8831 18.48C66.1365 18.0533 65.2165 17.84 64.1231 17.84C62.6031 17.84 61.4965 18.2133 60.8031 18.96C60.1098 19.68 59.7631 20.4933 59.7631 21.4C59.7631 22.1733 59.9631 22.8933 60.3631 23.56C60.7631 24.2 61.4298 24.8133 62.3631 25.4C63.3231 25.96 64.6165 26.52 66.2431 27.08C66.9898 27.3467 67.7765 27.6933 68.6031 28.12C69.4298 28.5467 70.1898 29.0933 70.8831 29.76C71.6031 30.4 72.1898 31.1867 72.6431 32.12C73.0965 33.0267 73.3231 34.12 73.3231 35.4C73.3231 36.6267 73.0831 37.7333 72.6031 38.72C72.1498 39.7067 71.5098 40.5467 70.6831 41.24C69.8831 41.9333 68.9631 42.4667 67.9231 42.84C66.9098 43.2133 65.8431 43.4 64.7231 43.4C63.2031 43.4 61.7898 43.08 60.4831 42.44C59.2031 41.7733 58.0698 40.9067 57.0831 39.84C56.1231 38.7467 55.3365 37.5867 54.7231 36.36L57.4431 34.52ZM80.1972 29.4V26.2H99.3972V29.4H80.1972ZM97.1172 15H100.517V43H97.1172V15ZM78.3172 15H81.7172V43H78.3172V15Z" fill="#FFFFFF"/>
<path d="M115.5 36.5L113.175 38.825C110.64 37.385 108.615 33.83 108.12 30.5L121.5 30.5V35H124.5V30.5H126.27C126.9 32.24 128.55 33.5 130.5 33.5C132.975 33.5 135 31.475 135 29C135 26.525 132.975 24.5 130.5 24.5C128.55 24.5 126.9 25.76 126.27 27.5H124.5V23H121.5V27.5L108.12 27.5C108.615 24.17 110.64 20.615 113.175 19.175L115.5 21.5L120 15.5H115.5C109.68 15.5 105 22.88 105 29C105 35.12 109.68 42.5 115.5 42.5H120L115.5 36.5ZM132 29C132 29.825 131.325 30.5 130.5 30.5C129.675 30.5 129 29.825 129 29C129 28.175 129.675 27.5 130.5 27.5C131.325 27.5 132 28.175 132 29Z" fill="#D2002D"/>
</svg>
